<svg xmlns="http://www.w3.org/2000/svg" width="76.226" height="45.316" viewBox="1014 2639 76.226 45.316"><g data-name="Group 116482"><path d="M1046.79 2664.432a1.761 1.761 0 0 0-1.582-1.895 1.761 1.761 0 0 0-1.894 1.582c-.079.955.626 1.8 1.581 1.894.955.094 1.8-.626 1.894-1.581Z" fill-rule="evenodd" data-name="Path 141914"/><path d="M1036.644 2663.44a1.738 1.738 0 1 1 0 .1z" fill-rule="evenodd" data-name="Ellipse 9602"/><path d="M1033.45 2662.96a1.761 1.761 0 0 0-1.581-1.894 1.761 1.761 0 0 0-1.895 1.581c-.078.955.627 1.8 1.582 1.894.97.094 1.816-.61 1.894-1.58Z" fill-rule="evenodd" data-name="Path 141915"/><path d="M1079.23 2653.347c-6.952-1.503-16.252-2.802-26.162-3.68-9.926-.876-19.305-1.19-26.413-.923-10.27.392-11.586 1.816-11.68 2.865l-.97 11.179c-.094 1.033.955 2.677 11.006 4.838 4.916 1.064 11.022 2.035 17.692 2.802l-.094 1.018c-.078.83.533 1.55 1.362 1.628l14.357 1.253c.83.078 1.55-.548 1.629-1.362l.579-6.639 1.284.11h.047c.281 0 .516-.22.548-.501.03-.298-.204-.564-.501-.595l-1.284-.11.579-6.638c.078-.83-.548-1.55-1.362-1.628l-14.357-1.253a1.495 1.495 0 0 0-1.628 1.362l-.094 1.065c-6.466-.752-12.4-1.69-17.222-2.724a.554.554 0 0 0-.658.422.531.531 0 0 0 .423.642c6.904 1.472 16.079 2.756 25.833 3.601 1.879.173 3.773.313 5.636.439l-.391 4.4-3.977-.345a1.754 1.754 0 0 0-1.55-1.331 1.761 1.761 0 0 0-1.894 1.581 1.705 1.705 0 0 0 .532 1.41.333.333 0 0 0 .564-.204v-.016c.031-.297.297-.532.595-.5l5.62.485-.407 4.571h-.015c-.298-.015-.658-.047-.971-.062l-.313-.016a179.891 179.891 0 0 1-4.321-.329c-9.88-.861-19.133-2.16-26.037-3.648-8.423-1.816-10.177-3.272-10.146-3.68l.846-9.722c1.018.736 2.88 1.456 5.668 2.223a.55.55 0 0 0 .673-.375.55.55 0 0 0-.376-.674c-5.762-1.596-5.824-2.614-5.824-2.63.031-.407 2.02-1.534 10.63-1.863 7.062-.266 16.393.063 26.272.924 9.88.86 19.132 2.16 26.037 3.648 8.423 1.816 10.176 3.272 10.145 3.679 0 .016-.282 1.112-7.14 1.66a.538.538 0 0 0-.5.595.538.538 0 0 0 .595.5c2.552-.203 5.354-.532 6.92-1.299l-.846 9.738s-.078.392-1.55.815c.047-.126.079-.235.11-.36a6.04 6.04 0 0 0-3.664-7.296l-.094-.032c-3.851-1.487-7.984-2.286-12.274-2.364-2.208-.031-4.54-.11-6.936-.22a.55.55 0 0 0-.564.643.538.538 0 0 0 .533.454c.845.031 1.69.078 2.505.11l-.877 9.988c-.814-.015-1.613-.047-2.411-.078a.543.543 0 0 0-.564.642c.047.25.266.438.533.454.955.031 1.925.063 2.927.094 1.237.031 2.505.062 3.852.078h.83c2.786.031 5.526.548 8.125 1.566a5.934 5.934 0 0 0 2.208.407c.94 0 1.863-.22 2.724-.642a6.024 6.024 0 0 0 2.396-2.16h.046c2.114-.47 3.147-1.097 3.226-1.989l.97-11.179c.094-1.017-.939-2.661-10.99-4.822Zm6.45 16.08a5.001 5.001 0 0 1-2.568 3.115 5.04 5.04 0 0 1-4.039.188 24.012 24.012 0 0 0-8.517-1.644h-.83a206.222 206.222 0 0 1-3.256-.063l.876-9.973c.94.031 1.863.047 2.756.063l-.72 8.282c-.032.297.203.564.5.595h.048c.282 0 .516-.22.548-.501l.736-8.345c3.976.125 7.812.892 11.382 2.27l.094.031a4.965 4.965 0 0 1 2.99 5.981Z" fill-rule="evenodd" data-name="Path 141916"/><path d="M1058.641 2679.838a.544.544 0 0 0-.735-.25.544.544 0 0 0-.251.735l1.77 3.68a.547.547 0 0 0 .5.313.629.629 0 0 0 .235-.047.544.544 0 0 0 .25-.736l-1.769-3.695Z" fill-rule="evenodd" data-name="Path 141917"/><path d="M1045.991 2679.196a.547.547 0 0 0-.736.235l-1.847 3.632a.547.547 0 0 0 .97.501l1.848-3.632a.547.547 0 0 0-.235-.736Z" fill-rule="evenodd" data-name="Path 141918"/><path d="M1047.4 2643.53c.078.22.298.345.501.345.063 0 .141-.016.204-.031a.55.55 0 0 0 .313-.705l-1.503-3.789a.55.55 0 0 0-.705-.313.55.55 0 0 0-.313.705l1.503 3.789Z" fill-rule="evenodd" data-name="Path 141919"/><path d="M1059.988 2645.05a.638.638 0 0 0 .282.077.532.532 0 0 0 .47-.266l2.097-3.507a.54.54 0 0 0-.188-.751.554.554 0 0 0-.751.188l-2.098 3.507a.54.54 0 0 0 .188.751Z" fill-rule="evenodd" data-name="Path 141920"/></g></svg>