<svg xmlns="http://www.w3.org/2000/svg" width="52.5" height="49.623" viewBox="887 2634.096 52.5 49.623"><g data-name="Group 116484"><path d="m939.49 2676.78-.544-6.22a2.606 2.606 0 0 0-.928-1.783 2.609 2.609 0 0 0-1.917-.604l-1.302.115-.794-9.072c-1.063-12.16-11.82-21.186-23.977-20.121-.967.084-1.92.231-2.852.435l-.136-1.55a2.883 2.883 0 0 1 2.617-3.119 2.857 2.857 0 0 1 2.1.663 2.86 2.86 0 0 1 1.018 1.955.376.376 0 1 0 .752-.066 3.61 3.61 0 0 0-1.284-2.466 3.604 3.604 0 0 0-2.652-.837 3.638 3.638 0 0 0-3.303 3.936l.146 1.66c-4.45 1.137-8.424 3.624-11.434 7.212a21.99 21.99 0 0 0-5.094 16.157l.61 6.974a.378.378 0 0 0 .375.345h.033a.377.377 0 0 0 .343-.41l-.61-6.974a21.666 21.666 0 0 1-.039-3.27l3.83 3.99a1.499 1.499 0 0 0 2.206-.046l3.633-4.122a1.5 1.5 0 0 1 2.143-.107l3.509 3.257c.668.62 1.73.506 2.25-.243l2.422-3.486a1.498 1.498 0 0 1 2.295-.201l2.99 3.012a1.499 1.499 0 0 0 2.257-.151l2.89-3.817a1.499 1.499 0 0 1 2.13-.266l4.294 3.427a1.5 1.5 0 0 0 2.18-.337l3.078-4.592c.255 1.044.434 2.12.53 3.224l.793 9.071-3.852.338a.377.377 0 1 0 .065.751l5.907-.516c.497-.043.983.109 1.366.43.382.321.617.772.66 1.27l.545 6.22a1.873 1.873 0 0 1-1.7 2.027l-46.705 4.084a1.861 1.861 0 0 1-1.366-.43 1.856 1.856 0 0 1-.66-1.27l-.545-6.22a1.873 1.873 0 0 1 1.7-2.027l38.516-3.37a.377.377 0 1 0-.065-.75l-38.517 3.37a2.628 2.628 0 0 0-2.387 2.843l.545 6.22c.061.698.39 1.331.928 1.782a2.608 2.608 0 0 0 1.916.604l46.704-4.085a2.63 2.63 0 0 0 2.387-2.845Zm-11.075-24.038a1.499 1.499 0 0 1-2.322.45l-3.575-3.124a1.498 1.498 0 0 0-2.18.224l-2.849 3.76a1.499 1.499 0 0 1-2.258.152l-2.99-3.012a1.5 1.5 0 0 0-2.294.2l-2.421 3.487c-.52.749-1.583.863-2.251.243l-3.459-3.21a1.498 1.498 0 0 0-2.186.158l-2.977 3.698a1.499 1.499 0 0 1-2.365-.039l-2.09-2.779a21.442 21.442 0 0 1 3.38-5.547 21.241 21.241 0 0 1 14.513-7.556c8.197-.717 15.736 3.316 19.89 9.81l-1.566 3.085Z" fill-rule="evenodd" data-name="Path 141928"/><path d="M891.376 2675.54a.377.377 0 0 0-.343.408l.337 3.842a.378.378 0 0 0 .375.345l.033-.001a.377.377 0 0 0 .343-.409l-.336-3.842a.377.377 0 0 0-.409-.344Z" fill-rule="evenodd" data-name="Path 141929"/><path d="M935.092 2676.342h.033a.377.377 0 0 0 .343-.41l-.336-3.841a.377.377 0 1 0-.751.066l.336 3.842a.377.377 0 0 0 .375.343Z" fill-rule="evenodd" data-name="Path 141930"/><path d="m930.275 2676.764.034-.001a.377.377 0 0 0 .343-.409l-.337-3.842a.376.376 0 1 0-.751.066l.336 3.842a.378.378 0 0 0 .375.344Z" fill-rule="evenodd" data-name="Path 141931"/><path d="M925.091 2672.59a.377.377 0 0 0-.342.409l.336 3.842a.378.378 0 0 0 .375.345c.01 0 .023 0 .033-.002a.377.377 0 0 0 .343-.408l-.336-3.842a.377.377 0 0 0-.409-.344Z" fill-rule="evenodd" data-name="Path 141932"/><path d="M920.275 2673.012a.377.377 0 0 0-.343.408l.336 3.842a.378.378 0 0 0 .376.345l.033-.001a.377.377 0 0 0 .343-.409l-.336-3.842a.376.376 0 0 0-.41-.343Z" fill-rule="evenodd" data-name="Path 141933"/><path d="M915.458 2673.433a.377.377 0 0 0-.342.409l.336 3.842a.378.378 0 0 0 .375.344h.034a.377.377 0 0 0 .342-.41l-.336-3.841a.376.376 0 0 0-.409-.344Z" fill-rule="evenodd" data-name="Path 141934"/><path d="M910.642 2673.855a.377.377 0 0 0-.343.408l.337 3.842a.378.378 0 0 0 .375.345l.033-.001a.377.377 0 0 0 .343-.409l-.336-3.842a.377.377 0 0 0-.409-.343Z" fill-rule="evenodd" data-name="Path 141935"/><path d="M905.826 2674.276a.377.377 0 0 0-.343.409l.336 3.842a.378.378 0 0 0 .375.344h.034a.377.377 0 0 0 .342-.41l-.336-3.841a.376.376 0 0 0-.408-.344Z" fill-rule="evenodd" data-name="Path 141936"/><path d="M901.01 2674.697a.377.377 0 0 0-.344.409l.337 3.842a.378.378 0 0 0 .375.345l.033-.001a.377.377 0 0 0 .343-.409l-.336-3.842a.375.375 0 0 0-.409-.344Z" fill-rule="evenodd" data-name="Path 141937"/><path d="M896.193 2675.119a.377.377 0 0 0-.343.409l.336 3.842a.378.378 0 0 0 .375.344h.034a.377.377 0 0 0 .342-.41l-.336-3.841a.376.376 0 0 0-.408-.344Z" fill-rule="evenodd" data-name="Path 141938"/><path d="M928.668 2641.51a.377.377 0 0 0 .468-.257l.784-2.694a.378.378 0 0 0-.725-.211l-.783 2.695c-.059.2.057.41.256.467Z" fill-rule="evenodd" data-name="Path 141939"/><path d="M934.961 2647.42a.385.385 0 0 0 .137-.026l2.616-1.02a.377.377 0 0 0-.274-.704l-2.615 1.021a.377.377 0 0 0 .136.729Z" fill-rule="evenodd" data-name="Path 141940"/><path d="m887.287 2647.089 2.723.683a.377.377 0 0 0 .183-.732l-2.722-.683a.378.378 0 1 0-.184.732Z" fill-rule="evenodd" data-name="Path 141941"/><path d="M895.416 2641.155a.377.377 0 1 0 .693-.3l-1.117-2.576a.377.377 0 0 0-.692.3l1.116 2.576Z" fill-rule="evenodd" data-name="Path 141942"/></g></svg>