<svg xmlns="http://www.w3.org/2000/svg" width="18" height="17.25" viewBox="0 0 18 17.25">
  <path id="Icon" d="M9-17.25a2.162,2.162,0,0,0-1.582.668A2.162,2.162,0,0,0,6.75-15a2.258,2.258,0,0,0,.141.75H3v4.5h.75V0h16.5V-9.75H21v-4.5H17.109A2.258,2.258,0,0,0,17.25-15a2.162,2.162,0,0,0-.668-1.582,2.149,2.149,0,0,0-1.57-.668,2.653,2.653,0,0,0-1.676.609,5.4,5.4,0,0,0-1.125,1.219L12-15.094l-.211-.328a5.4,5.4,0,0,0-1.125-1.219A2.638,2.638,0,0,0,9-17.25Zm0,1.5a1.3,1.3,0,0,1,.773.328,3.686,3.686,0,0,1,.773.844,1.231,1.231,0,0,1,.117.188l.07.141H9a.73.73,0,0,1-.539-.211A.73.73,0,0,1,8.25-15a.73.73,0,0,1,.211-.539A.73.73,0,0,1,9-15.75Zm6,0a.73.73,0,0,1,.539.211A.73.73,0,0,1,15.75-15a.73.73,0,0,1-.211.539A.73.73,0,0,1,15-14.25H13.266l.07-.141a1.231,1.231,0,0,1,.117-.187,3.686,3.686,0,0,1,.773-.844A1.3,1.3,0,0,1,15-15.75Zm-10.5,3h15v1.5H12.75V-12h-1.5v.75H4.5Zm.75,3h13.5V-1.5h-6V-9h-1.5v7.5h-6Z" transform="translate(-3 17.25)" fill="#fff"/>
</svg>
