<svg xmlns="http://www.w3.org/2000/svg" width="22.584" height="19.761" viewBox="0 2.962 22.584 19.761"><g data-name="credit-card (3)"><g data-name="Group 22985"><g data-name="Group 22984"><path d="M21.173 2.962H1.412C.634 2.962 0 3.596 0 4.373v12.704c0 .778.634 1.412 1.412 1.412h10.586a.706.706 0 0 0 0-1.412H1.412V8.608h19.76v2.117a.706.706 0 0 0 1.412 0V4.373c0-.777-.633-1.411-1.411-1.411Zm0 4.235H1.412V4.373h19.76v2.824Z" fill-rule="evenodd" data-name="Path 7859"/></g></g><g data-name="Group 22987"><g data-name="Group 22986"><path d="M6.352 11.431H3.529a.706.706 0 0 0 0 1.412h2.823a.706.706 0 0 0 0-1.412Z" fill-rule="evenodd" data-name="Path 7860"/></g></g><g data-name="Group 22989"><g data-name="Group 22988"><path d="M21.879 15.666h-.706v-1.412a2.826 2.826 0 0 0-2.823-2.823 2.826 2.826 0 0 0-2.823 2.823v1.412h-.706a.706.706 0 0 0-.706.705v5.647c0 .39.316.705.706.705h7.058c.39 0 .705-.316.705-.705V16.37a.706.706 0 0 0-.705-.705Zm-4.94-1.412c0-.778.633-1.411 1.41-1.411.779 0 1.412.633 1.412 1.411v1.412h-2.823v-1.412Zm4.234 7.058h-5.646v-4.235h5.646v4.235Z" fill-rule="evenodd" data-name="Path 7861"/></g></g></g></svg>