<svg xmlns="http://www.w3.org/2000/svg" width="64.909" height="36.919" viewBox="471 2644 64.909 36.919"><g data-name="Group 116495"><path d="m535.304 2658.045-1.308-.363-22.012-13.493a1.265 1.265 0 0 0-1.926 1.078v5.8c0 .189.153.342.343.342h1.795c.19 0 .342-.153.342-.342v-2.536l9.601 6.351a85.306 85.306 0 0 0-11.748-1.14 253.631 253.631 0 0 0-13.879 0c-3.937.107-7.864.49-11.748 1.14l9.601-6.351v2.536c0 .189.154.342.343.342h1.795c.19 0 .343-.153.343-.342v-5.8a1.265 1.265 0 0 0-1.926-1.078l-22.013 13.493-1.307.363a.82.82 0 0 0-.6.789v2.156a.82.82 0 0 0 .818.818h2.195a.927.927 0 0 0 .676-.293l1.511-1.615a.091.091 0 0 1 .051-.028l1.777-.35a105.168 105.168 0 0 1 17.1-1.94l1.439-.044.646.415c.199.127.43.194.665.194h11.15c.236 0 .466-.066.665-.194l.646-.415 1.44.044c5.726.176 11.48.83 17.1 1.94l1.776.35c.02.004.038.013.051.028l1.511 1.615a.929.929 0 0 0 .676.293h.873l-1.11 13.22a3.582 3.582 0 0 1-3.1 3.268l-11.755 1.614a7.894 7.894 0 0 1-4.231-.582l-5.216-13.235a5.246 5.246 0 0 0-7.352-2.707l-.037.02a5.251 5.251 0 0 0-2.416 2.709l-5.209 13.215a7.882 7.882 0 0 1-4.23.58l-11.756-1.613a3.581 3.581 0 0 1-3.1-3.268l-.978-11.65a.465.465 0 1 0-.929.078l.979 11.65a4.51 4.51 0 0 0 3.903 4.115l11.755 1.614a8.804 8.804 0 0 0 9.414-5.51l2.996-7.602a2.21 2.21 0 0 1 1.014-1.138l.019-.01a2.207 2.207 0 0 1 3.088 1.138l3 7.612a8.804 8.804 0 0 0 9.414 5.51l11.755-1.614a4.511 4.511 0 0 0 3.903-4.114l1.117-13.297h.387a.82.82 0 0 0 .818-.818v-2.156a.834.834 0 0 0-.605-.792Zm-40.206-1.395c-5.777.177-11.581.835-17.252 1.956l-1.776.35a1.03 1.03 0 0 0-.55.306l-1.507 1.612h-2.08v-1.955l4.383-1.214a84.492 84.492 0 0 1 16.112-2.817l2.748 1.758-.078.004Zm14.859.025-.768.492a.3.3 0 0 1-.161.046h-1.74l.536-.342c.85-.544.853-1.63.279-2.247.756.013 1.511.03 2.264.05.85.023 1.7.06 2.547.11l-2.957 1.89Zm25.014 4.2-2.077.003-1.51-1.615a1.024 1.024 0 0 0-.55-.307l-1.777-.35a106.003 106.003 0 0 0-17.252-1.956l-.076-.003 2.748-1.758a84.513 84.513 0 0 1 16.112 2.817l4.383 1.214v1.956Z" fill-rule="evenodd" data-name="Path 142029"/><path d="m486.512 2664.406-8.788 8.799a.467.467 0 1 0 .66.658l8.787-8.799a.467.467 0 0 0 0-.66.47.47 0 0 0-.66.002Z" fill-rule="evenodd" data-name="Path 142030"/><path d="m483.814 2671.75-1.452 1.455a.467.467 0 1 0 .66.658l1.452-1.454a.467.467 0 1 0-.66-.658Z" fill-rule="evenodd" data-name="Path 142031"/><path d="M485.284 2670.939a.465.465 0 0 0 .66-.001l5.865-5.872a.467.467 0 0 0-.66-.66l-5.865 5.872a.467.467 0 0 0 0 .661Z" fill-rule="evenodd" data-name="Path 142032"/><path d="m523.882 2664.406-8.788 8.799a.467.467 0 0 0 .66.658l8.788-8.799a.467.467 0 0 0 0-.66.47.47 0 0 0-.66.002Z" fill-rule="evenodd" data-name="Path 142033"/><path d="m521.184 2671.75-1.453 1.455a.467.467 0 1 0 .66.658l1.452-1.454a.467.467 0 1 0-.66-.658Z" fill-rule="evenodd" data-name="Path 142034"/><path d="M522.655 2670.939a.465.465 0 0 0 .66-.001l5.865-5.872a.467.467 0 0 0-.66-.66l-5.865 5.872a.467.467 0 0 0 0 .661Z" fill-rule="evenodd" data-name="Path 142035"/></g></svg>