<svg xmlns="http://www.w3.org/2000/svg" width="18.047" height="21" viewBox="0 0 18.047 21">
  <path id="Icon" d="M9.75-19.5a2.162,2.162,0,0,0-1.582.668A2.162,2.162,0,0,0,7.5-17.25v8.859l-.492-.516L6.82-9.07a2.143,2.143,0,0,0-1.57-.656,2.143,2.143,0,0,0-1.57.656A2.143,2.143,0,0,0,3.023-7.5,2.143,2.143,0,0,0,3.68-5.93v.023L9.82.164l.047.023.023.047a6.692,6.692,0,0,0,1.711.914,6.018,6.018,0,0,0,2.039.352H14.93A6.048,6.048,0,0,0,18.012.68,6.033,6.033,0,0,0,20.25-1.559a6.048,6.048,0,0,0,.82-3.082V-10.5a2.162,2.162,0,0,0-.668-1.582,2.162,2.162,0,0,0-1.582-.668,2.173,2.173,0,0,0-.891.211,2.209,2.209,0,0,0-.8-1.23,2.174,2.174,0,0,0-1.383-.48,2.188,2.188,0,0,0-1.5.586,2.188,2.188,0,0,0-1.5-.586,2.258,2.258,0,0,0-.75.141V-17.25a2.162,2.162,0,0,0-.668-1.582A2.162,2.162,0,0,0,9.75-19.5Zm0,1.5a.721.721,0,0,1,.527.223.721.721,0,0,1,.223.527V-9H12v-3a.721.721,0,0,1,.223-.527.721.721,0,0,1,.527-.223.721.721,0,0,1,.527.223A.721.721,0,0,1,13.5-12v3H15v-3a.721.721,0,0,1,.223-.527.721.721,0,0,1,.527-.223.721.721,0,0,1,.527.223A.721.721,0,0,1,16.5-12v3h1.57v-1.5a.721.721,0,0,1,.223-.527.721.721,0,0,1,.527-.223.721.721,0,0,1,.527.223.721.721,0,0,1,.223.527v5.859A4.533,4.533,0,0,1,18.949-2.3,4.656,4.656,0,0,1,17.273-.621,4.533,4.533,0,0,1,14.93,0H13.641A4.633,4.633,0,0,1,10.8-.984l-6.07-6A.743.743,0,0,1,4.477-7.5a.743.743,0,0,1,.258-.516.743.743,0,0,1,.516-.258.743.743,0,0,1,.516.258L9-4.781V-17.25a.721.721,0,0,1,.223-.527A.721.721,0,0,1,9.75-18Z" transform="translate(-3.023 19.5)" fill="#fff"/>
</svg>
