<svg id="Wishlist" xmlns="http://www.w3.org/2000/svg" width="26.461" height="26.461" viewBox="0 0 26.461 26.461">
  <g id="Group_116061" data-name="Group 116061">
    <g id="Group_116060" data-name="Group 116060">
      <path id="Path_141796" data-name="Path 141796" d="M22.586,3.875A13.231,13.231,0,0,0,3.875,22.586,13.231,13.231,0,0,0,22.586,3.875ZM13.23,24.735a11.5,11.5,0,1,1,11.5-11.5A11.518,11.518,0,0,1,13.23,24.735Z"/>
    </g>
  </g>
  <g id="Group_116063" data-name="Group 116063" transform="translate(5.915 7.27)">
    <g id="Group_116062" data-name="Group 116062">
      <path id="Path_141797" data-name="Path 141797" d="M124.7,140.678a4.364,4.364,0,0,0-2.939,1.133,4.377,4.377,0,0,0-7.316,3.244c0,1.738,1.182,3.681,3.513,5.775a26.543,26.543,0,0,0,3.348,2.542l.455.283.455-.283a26.535,26.535,0,0,0,3.348-2.542c2.331-2.093,3.513-4.036,3.513-5.775A4.382,4.382,0,0,0,124.7,140.678Zm-.271,8.852a25.511,25.511,0,0,1-2.668,2.076,25.517,25.517,0,0,1-2.668-2.076c-1.884-1.7-2.922-3.286-2.922-4.475a2.651,2.651,0,0,1,4.869-1.453l.721,1.1.721-1.1a2.651,2.651,0,0,1,4.869,1.453C127.351,146.244,126.313,147.833,124.428,149.53Z" transform="translate(-114.445 -140.678)"/>
    </g>
  </g>
</svg>
