<svg xmlns="http://www.w3.org/2000/svg" width="12.103" height="13.191" viewBox="1331.125 4.03 12.103 13.191"><g data-name="Group 116526"><path d="M1331.125 7.38V5.03a1 1 0 0 1 1-1h2.35a1 1 0 0 1 1 1v2.35a1 1 0 0 1-1 1h-2.35a1 1 0 0 1-1-1zM1338.878 7.38V5.03a1 1 0 0 1 1-1h2.35a1 1 0 0 1 1 1v2.35a1 1 0 0 1-1 1h-2.35a1 1 0 0 1-1-1zM1331.125 16.22v-2.349a1 1 0 0 1 1-1h2.35a1 1 0 0 1 1 1v2.35a1 1 0 0 1-1 1h-2.35a1 1 0 0 1-1-1zM1338.878 16.22v-2.349a1 1 0 0 1 1-1h2.35a1 1 0 0 1 1 1v2.35a1 1 0 0 1-1 1h-2.35a1 1 0 0 1-1-1z" fill-rule="evenodd" data-name="Rectangle 19709"/></g></svg>