<svg xmlns="http://www.w3.org/2000/svg" width="61.501" height="55.815" viewBox="1158 2633 61.501 55.815"><g data-name="Group 116494"><path d="m1219.335 2674.534-15.77-32.757a9.165 9.165 0 0 0-4.987-4.595l-2.328-.894a18.07 18.07 0 0 0-5.752-1.177c-.02-.003-.037-.003-.056-.003a17.639 17.639 0 0 0-2.192.055l-6.41.56c-2.703.237-5.36 1.1-7.684 2.498l-2.137 1.285a9.163 9.163 0 0 0-4.113 5.391l-9.843 34.998a1.701 1.701 0 0 0 1.141 2.078l4.918 1.482a1.697 1.697 0 0 0 2.109-1.133l2.837-9.417a.442.442 0 1 0-.846-.256l-2.837 9.418a.81.81 0 0 1-1.008.54l-4.917-1.48a.813.813 0 0 1-.546-.994l9.842-34.998a8.276 8.276 0 0 1 3.718-4.873l2.137-1.284a17.147 17.147 0 0 1 4.243-1.819 12.05 12.05 0 0 0-1.262 6.541 12.167 12.167 0 0 0 1.997 5.683l6.98 10.457c.124.185.2.401.22.624l2 22.858-15.804 1.383a64.11 64.11 0 0 1-1.95-20.441l.84-12.92a.442.442 0 0 0-.883-.058l-.84 12.92a65.045 65.045 0 0 0 2.827 23.684 1.326 1.326 0 0 0 1.373.92l30.491-2.668a1.324 1.324 0 0 0 1.192-1.144c.115-.891.21-1.783.288-2.675v-.006a65.036 65.036 0 0 0-1.617-21.135l-3.07-12.578a.443.443 0 0 0-.86.21l3.072 12.578a64.169 64.169 0 0 1 1.63 20.47l-11.738 1.026a.442.442 0 0 0 .038.883c.012 0 .026 0 .039-.002l11.58-1.012c-.068.71-.146 1.419-.237 2.129a.435.435 0 0 1-.391.376l-12.699 1.111-2.322-26.527a3.087 3.087 0 0 0-.508-1.44l-.917-1.369a.442.442 0 1 0-.735.493l.917 1.368c.205.305.33.66.361 1.025l2.321 26.527-1.226.108-.251-2.872-2.038-23.298a2.222 2.222 0 0 0-.365-1.038l-6.98-10.457a11.29 11.29 0 0 1-1.852-5.27 11.184 11.184 0 0 1 1.546-6.745 16.576 16.576 0 0 1 1.65-.25 7.973 7.973 0 0 0-1.95 5.95c.199 2.27.967 4.453 2.23 6.35l4.412 6.607a.5.5 0 0 0 .874-.077l3.196-7.273a13.567 13.567 0 0 0 1.095-6.64 7.978 7.978 0 0 0-2.954-5.522c.555-.04 1.112-.055 1.669-.04a11.335 11.335 0 0 1 2.694 6.373c.164 1.88-.15 3.785-.908 5.512l-3.22 7.328a.442.442 0 0 0 .81.356l3.22-7.328a12.185 12.185 0 0 0 .98-5.945 12.246 12.246 0 0 0-2.38-6.222c1.538.148 3.057.5 4.497 1.053l2.327.894a8.285 8.285 0 0 1 4.509 4.154l15.77 32.757a.812.812 0 0 1-.365 1.072l-4.586 2.313a.81.81 0 0 1-1.086-.358l-4.414-8.752a.442.442 0 1 0-.789.398l4.414 8.752c.42.834 1.44 1.17 2.273.749l4.586-2.312a1.698 1.698 0 0 0 .76-2.243Zm-30.255 12.102-14.807 1.296a.434.434 0 0 1-.45-.303 63.553 63.553 0 0 1-.604-2.056l15.648-1.37.213 2.433Z" fill-rule="evenodd" data-name="Path 142024"/><path d="M1160.288 2646.917h.005l3.289-.036a.442.442 0 1 0-.01-.884l-3.29.036a.442.442 0 0 0 .006.884Z" fill-rule="evenodd" data-name="Path 142025"/><path d="M1167.74 2637.774a.441.441 0 1 0 .695-.545l-2.03-2.587a.44.44 0 1 0-.695.546l2.03 2.586Z" fill-rule="evenodd" data-name="Path 142026"/><path d="M1202.914 2636.623a.439.439 0 0 0 .607-.146l1.716-2.805a.441.441 0 1 0-.754-.46l-1.716 2.803a.441.441 0 0 0 .147.608Z" fill-rule="evenodd" data-name="Path 142027"/><path d="m1208.323 2645.257.047-.002 3.27-.349a.442.442 0 0 0-.093-.879l-3.27.349a.443.443 0 0 0 .046.881Z" fill-rule="evenodd" data-name="Path 142028"/></g></svg>