<svg xmlns="http://www.w3.org/2000/svg" width="146.816" height="46.686" viewBox="80.352 231.911 146.816 46.686"><path d="M80.352 268.49c0 6.015 4.836 10.107 12.462 10.107 7.564 0 12.834-3.844 12.834-10.044 0-4.712-2.604-7.068-7.75-8.246l-5.518-1.302c-2.604-.62-3.968-1.736-3.968-3.472 0-2.294 1.736-3.658 4.712-3.658 2.914 0 4.65 1.674 4.712 4.278h7.192c-.062-5.952-4.712-9.92-11.594-9.92-7.068 0-12.152 3.596-12.152 9.61 0 4.898 2.666 7.502 8.184 8.742l5.518 1.302c2.728.62 3.534 1.736 3.534 3.286 0 2.232-1.922 3.658-5.456 3.658-3.472 0-5.456-1.674-5.518-4.34h-7.192Zm33.852 9.3h7.378l4.216-13.143c1.55-5.022 2.108-7.192 2.418-8.618.248 1.55.93 4.464 2.17 8.494l4.216 13.268h7.068l10.602-30.628h-7.998l-4.092 13.144c-.558 1.922-1.55 5.58-2.046 7.874-.372-2.046-1.612-6.634-1.984-7.874l-4.092-13.144h-7.688l-4.216 13.144c-.992 3.038-1.55 4.96-2.108 7.936-.558-2.852-1.178-5.518-1.86-7.936l-4.03-13.144h-7.874l9.92 30.628Zm43.338-36.765c2.48 0 4.526-2.046 4.526-4.588a4.511 4.511 0 0 0-4.526-4.526c-2.604 0-4.65 1.984-4.65 4.526s2.046 4.588 4.65 4.588Zm-3.782 36.766h7.564v-30.628h-7.564v30.628Zm9.92-9.3c0 6.014 4.836 10.106 12.462 10.106 7.564 0 12.834-3.844 12.834-10.044 0-4.712-2.604-7.068-7.75-8.246l-5.518-1.302c-2.604-.62-3.968-1.736-3.968-3.472 0-2.294 1.736-3.658 4.712-3.658 2.914 0 4.65 1.674 4.712 4.278h7.192c-.062-5.952-4.712-9.92-11.594-9.92-7.068 0-12.152 3.596-12.152 9.61 0 4.898 2.666 7.502 8.184 8.742l5.518 1.302c2.728.62 3.534 1.736 3.534 3.286 0 2.232-1.922 3.658-5.456 3.658-3.472 0-5.456-1.674-5.518-4.34h-7.192Zm25.606 0c0 6.014 4.836 10.106 12.462 10.106 7.564 0 12.834-3.844 12.834-10.044 0-4.712-2.604-7.068-7.75-8.246l-5.518-1.302c-2.604-.62-3.968-1.736-3.968-3.472 0-2.294 1.736-3.658 4.712-3.658 2.914 0 4.65 1.674 4.712 4.278h7.192c-.062-5.952-4.712-9.92-11.594-9.92-7.068 0-12.152 3.596-12.152 9.61 0 4.898 2.666 7.502 8.184 8.742l5.518 1.302c2.728.62 3.534 1.736 3.534 3.286 0 2.232-1.922 3.658-5.456 3.658-3.472 0-5.456-1.674-5.518-4.34h-7.192Zm32.86 10.044c2.728 0 5.022-2.232 5.022-4.898 0-2.728-2.294-4.96-5.022-4.96s-5.022 2.232-5.022 4.96c0 2.666 2.294 4.898 5.022 4.898Z" fill="#f7f5f0" fill-rule="evenodd" data-name="Logo"/></svg>