<svg xmlns="http://www.w3.org/2000/svg" width="17.186" height="17.25" viewBox="0 0 17.186 17.25">
  <path id="Icon" d="M6.68-17.25l-.141.586L3.773-3.914,3.563-3H7.219L6.773-.914,6.563,0h5.227l.117-.609.773-3.609H14.7A6.131,6.131,0,0,0,17.344-4.8,5.8,5.8,0,0,0,19.43-6.445,5.936,5.936,0,0,0,20.625-9a5.175,5.175,0,0,0,.023-2.133,3.987,3.987,0,0,0-.773-1.617,4.149,4.149,0,0,0-2.227-1.359,3.707,3.707,0,0,0-.961-1.852,4.222,4.222,0,0,0-1.477-.984,4.62,4.62,0,0,0-1.664-.3ZM7.9-15.75h5.648a3.185,3.185,0,0,1,1.125.211,2.441,2.441,0,0,1,.938.609,2.238,2.238,0,0,1,.563,1.008,3.673,3.673,0,0,1-.023,1.594,4.493,4.493,0,0,1-1.57,2.66,4.492,4.492,0,0,1-2.883.949H8.461L7.57-4.5H5.438Zm1.9,1.1-.141.586L8.672-9.68H11.32a2.716,2.716,0,0,0,1.77-.645,3.06,3.06,0,0,0,1.043-1.629h.023V-12a2.562,2.562,0,0,0,.047-.973,1.848,1.848,0,0,0-.352-.855,2.022,2.022,0,0,0-.727-.6,2.069,2.069,0,0,0-.937-.223Zm1.2,1.5h1.2a.52.52,0,0,1,.445.188.72.72,0,0,1,.07.609v.023a1.385,1.385,0,0,1-.539.8,1.389,1.389,0,0,1-.844.352h-.773Zm6.7.656a2.61,2.61,0,0,1,1.031.7,2.793,2.793,0,0,1,.422,2.461,4.493,4.493,0,0,1-1.57,2.66,4.492,4.492,0,0,1-2.883.949H11.461L10.57-1.5H8.438L8.766-3h.023l.117-.609L9.68-7.219H11.7A6.131,6.131,0,0,0,14.344-7.8,5.8,5.8,0,0,0,16.43-9.445,5.936,5.936,0,0,0,17.625-12q.023-.141.047-.4Z" transform="translate(-3.563 17.25)" fill="#fff"/>
</svg>
