<svg xmlns="http://www.w3.org/2000/svg" width="174" height="17.826" viewBox="0 0 174 17.826">
  <g id="Group_116095" data-name="Group 116095" opacity="0.536">
    <g id="apple-pay" transform="translate(0 1.84)">
      <g id="Group_115881" data-name="Group 115881" transform="translate(0 0)">
        <g id="Group_115879" data-name="Group 115879">
          <path id="Path_141744" data-name="Path 141744" d="M72.445,149.465a2.892,2.892,0,0,0,.665-2.061,2.868,2.868,0,0,0-1.9.984,2.707,2.707,0,0,0-.682,1.981,2.393,2.393,0,0,0,1.917-.9" transform="translate(-65.323 -147.404)" fill="#f7f5f0"/>
          <path id="Path_141745" data-name="Path 141745" d="M7.779,189.573c-1.059-.063-1.959.6-2.465.6s-1.28-.569-2.118-.554a3.122,3.122,0,0,0-2.654,1.612c-1.138,1.961-.3,4.869.806,6.466.537.79,1.185,1.66,2.038,1.629.806-.032,1.122-.522,2.1-.522s1.264.522,2.117.506c.885-.016,1.438-.79,1.975-1.581a7.015,7.015,0,0,0,.884-1.818A2.871,2.871,0,0,1,8.743,193.3a2.927,2.927,0,0,1,1.39-2.451,3.027,3.027,0,0,0-2.354-1.28" transform="translate(0 -186.465)" fill="#f7f5f0"/>
        </g>
        <g id="Group_115880" data-name="Group 115880" transform="translate(12.552 0.904)">
          <path id="Path_141746" data-name="Path 141746" d="M174.982,159.688a3.721,3.721,0,0,1,3.9,3.9,3.762,3.762,0,0,1-3.961,3.912h-2.548v4.052h-1.841v-11.86Zm-2.606,6.263h2.112a2.36,2.36,0,1,0,.008-4.709h-2.12Z" transform="translate(-170.536 -159.688)" fill="#f7f5f0"/>
          <path id="Path_141747" data-name="Path 141747" d="M290.52,207.574c0-1.512,1.159-2.441,3.214-2.556l2.367-.14v-.666c0-.962-.649-1.537-1.734-1.537a1.655,1.655,0,0,0-1.825,1.266h-1.677c.1-1.562,1.43-2.712,3.567-2.712,2.1,0,3.435,1.11,3.435,2.844v5.959h-1.7v-1.422h-.041a3.089,3.089,0,0,1-2.729,1.57A2.621,2.621,0,0,1,290.52,207.574Zm5.58-.781v-.682l-2.129.131c-1.06.074-1.66.543-1.66,1.282,0,.756.625,1.249,1.578,1.249A2.072,2.072,0,0,0,296.1,206.793Z" transform="translate(-281.689 -198.172)" fill="#f7f5f0"/>
          <path id="Path_141748" data-name="Path 141748" d="M401.413,215.177v-1.438a3.285,3.285,0,0,0,.575.033,1.44,1.44,0,0,0,1.537-1.233c0-.016.156-.526.156-.534l-3.123-8.654h1.923l2.186,7.035h.033l2.186-7.035h1.874l-3.238,9.1c-.739,2.1-1.594,2.77-3.386,2.77A6.862,6.862,0,0,1,401.413,215.177Z" transform="translate(-383.628 -200.136)" fill="#f7f5f0"/>
        </g>
      </g>
    </g>
    <path id="visa" d="M12.533,173.507l-4.321,10.31H5.392l-2.125-8.227a1.14,1.14,0,0,0-.635-.907A11.214,11.214,0,0,0,0,173.806l.065-.3H4.6a1.243,1.243,0,0,1,1.23,1.051l1.124,5.967,2.775-7.019h2.8Zm11.047,6.943c.013-2.72-3.763-2.868-3.736-4.084.007-.371.359-.764,1.13-.864a5.034,5.034,0,0,1,2.63.46l.468-2.185a7.168,7.168,0,0,0-2.495-.457c-2.636,0-4.492,1.4-4.508,3.408-.017,1.484,1.324,2.311,2.336,2.806,1.039.506,1.386.828,1.383,1.282-.007.692-.829.994-1.6,1.008a5.582,5.582,0,0,1-2.741-.652l-.483,2.26a8.136,8.136,0,0,0,2.967.548c2.8,0,4.635-1.387,4.643-3.531m6.961,3.368h2.467l-2.153-10.31H28.578a1.217,1.217,0,0,0-1.136.756l-4,9.555h2.8l.556-1.54H30.22Zm-2.976-3.653,1.4-3.871.808,3.871Zm-11.22-6.657-2.207,10.31H11.47l2.207-10.31Z" transform="translate(96.049 -170.005)" fill="#f7f5f0"/>
    <g id="Group_116095-2" data-name="Group 116095" transform="translate(60)">
      <path id="Path_141819" data-name="Path 141819" d="M82.309,127.844v.075a5.524,5.524,0,0,1-2.041,4.532,6.113,6.113,0,0,1-3.746,1.287h-2.39c-.037,0-.12,0-.178.006a.811.811,0,0,0-.025.12c0,.015,0,.031-.007.046l-.764,4.211a1.576,1.576,0,0,1-1.551,1.3h-.146l-.053.345a.971.971,0,0,0,.959,1.119h1.851a.97.97,0,0,0,.955-.8l.671-3.7c0-.007,0-.015,0-.022.061-.449.244-.47.589-.47h2.1a4.95,4.95,0,0,0,3.034-1.041,4.452,4.452,0,0,0,1.637-3.658v-1.113A3.123,3.123,0,0,0,82.309,127.844Zm0,0" transform="translate(-68.974 -123.505)" fill="#f7f5f0"/>
      <path id="Path_141820" data-name="Path 141820" d="M3.152,14.43l.764-4.211A1.075,1.075,0,0,1,5.159,9.184h2.39a4.581,4.581,0,0,0,4.737-4.77V3.148A3.225,3.225,0,0,0,8.776,0H5.159c-2.77.034-2.981-.019-3.51,3.518L.007,14.255a.527.527,0,0,0,.52.608H2.634A.527.527,0,0,0,3.152,14.43Zm0,0" transform="translate(-0.001)" fill="#f7f5f0"/>
    </g>
    <g id="Group_116097" data-name="Group 116097" transform="translate(149 1.419)">
      <circle id="Ellipse_3071" data-name="Ellipse 3071" cx="7.5" cy="7.5" r="7.5" transform="translate(3 0)" fill="#f7f5f0" style="mix-blend-mode: soft-light;isolation: isolate"/>
      <circle id="Ellipse_3072" data-name="Ellipse 3072" cx="7.5" cy="7.5" r="7.5" transform="translate(10 0)" fill="#f7f5f0" opacity="0.184"/>
    </g>
  </g>
</svg>
