<svg xmlns="http://www.w3.org/2000/svg" width="52.237" height="51.906" viewBox="339.999 2636 52.237 51.906"><g data-name="Group 116475"><path d="m371.63 2647.945 1.81-9.13c.083-.422-.098-.85-.459-1.084l-2.62-1.697a.21.21 0 0 0-.324.181 14.201 14.201 0 0 1-4.55 10.789l-.157.144 4.952 1.59a1.046 1.046 0 0 0 1.347-.793Z" fill-rule="evenodd" data-name="Path 141859"/><path d="M359.263 2649.027c.226.584.911.84 1.465.548l4.602-2.425-.18-.116a14.2 14.2 0 0 1-6.356-9.834.21.21 0 0 0-.35-.123l-2.286 2.127a1.046 1.046 0 0 0-.263 1.147l3.368 8.676Z" fill-rule="evenodd" data-name="Path 141860"/><path d="m350.407 2662.473-5.019-3.143a1.363 1.363 0 0 1-.542-1.665l4.79-11.935a6.216 6.216 0 0 1 3.11-3.308l1.947-.925a.375.375 0 1 0-.322-.678l-1.947.924a6.97 6.97 0 0 0-3.486 3.707l-4.79 11.935a2.115 2.115 0 0 0 .84 2.582l5.02 3.142a.375.375 0 0 0 .4-.636Z" fill-rule="evenodd" data-name="Path 141861"/><path d="M381.176 2642.629a6.963 6.963 0 0 0-4.077-3.046l-2.077-.572a.375.375 0 1 0-.2.723l2.078.573a6.213 6.213 0 0 1 3.637 2.718l6.79 10.922a1.366 1.366 0 0 1-.246 1.735l-4.396 3.967a.375.375 0 0 0 .504.558l4.396-3.966a2.116 2.116 0 0 0 .38-2.69l-6.79-10.922Z" fill-rule="evenodd" data-name="Path 141862"/><path d="M365.434 2648.342a.375.375 0 0 0-.342.407l.092 1.045a.377.377 0 0 0 .373.343h.034c.207-.019.36-.202.341-.408l-.091-1.044a.376.376 0 0 0-.407-.343Z" fill-rule="evenodd" data-name="Path 141863"/><path d="M359.886 2637.84a9.248 9.248 0 0 0 9.098-.742.375.375 0 1 0-.423-.62 8.48 8.48 0 0 1-2.453 1.146 8.484 8.484 0 0 1-5.906-.465.376.376 0 0 0-.316.68Z" fill-rule="evenodd" data-name="Path 141864"/><path d="M381.142 2652.82a.376.376 0 0 0-.748.066l2.675 30.585a.807.807 0 0 1-.257.667l-.33.306c-.295.274-.68.445-1.081.48l-10.545.922a1.826 1.826 0 0 1-1.178-.305l-.65-.438-2.932-33.508a.376.376 0 1 0-.748.066l2.93 33.508-.563.544c-.3.289-.693.468-1.108.505l-10.638.93a1.822 1.822 0 0 1-1.245-.352l-.227-.168a.815.815 0 0 1-.326-.583l-2.68-30.632a.376.376 0 1 0-.748.065l2.68 30.632c.038.446.267.855.627 1.121l.226.169a2.572 2.572 0 0 0 1.759.497l10.638-.93a2.586 2.586 0 0 0 1.564-.714l.474-.457.547.368a2.59 2.59 0 0 0 1.664.43l10.545-.922a2.585 2.585 0 0 0 1.526-.677l.33-.306a1.55 1.55 0 0 0 .495-1.284l-2.676-30.585Z" fill-rule="evenodd" data-name="Path 141865"/><path d="M384.36 2641.113a.375.375 0 0 0 .514-.134l1.416-2.412a.375.375 0 1 0-.648-.38l-1.415 2.412a.375.375 0 0 0 .134.514Z" fill-rule="evenodd" data-name="Path 141866"/><path d="M392.233 2647.597a.376.376 0 0 0-.42-.326l-2.774.347a.376.376 0 1 0 .094.746l2.774-.347a.376.376 0 0 0 .326-.42Z" fill-rule="evenodd" data-name="Path 141867"/><path d="m343.147 2648.288-2.792.146a.376.376 0 0 0 .02.751h.02l2.791-.146a.376.376 0 0 0-.04-.751Z" fill-rule="evenodd" data-name="Path 141868"/><path d="M346.396 2641.156a.374.374 0 0 0 .53.042.377.377 0 0 0 .041-.53l-1.816-2.125a.377.377 0 0 0-.572.488l1.817 2.125Z" fill-rule="evenodd" data-name="Path 141869"/></g></svg>