<svg xmlns="http://www.w3.org/2000/svg" width="15.555" height="16.592" viewBox="0 3.727 15.555 16.592"><path d="M12.638 14.486c-.96 0-1.814.467-2.345 1.185l-4.578-2.34a2.908 2.908 0 0 0-.095-1.915l4.798-2.883a2.911 2.911 0 0 0 2.22 1.027 2.92 2.92 0 0 0 2.917-2.916 2.92 2.92 0 0 0-2.917-2.917A2.92 2.92 0 0 0 9.92 7.698l-4.81 2.89a2.91 2.91 0 0 0-2.192-.995A2.92 2.92 0 0 0 0 12.509a2.915 2.915 0 0 0 5.288 1.696l4.564 2.333a2.92 2.92 0 0 0 2.786 3.781 2.92 2.92 0 0 0 2.917-2.916 2.92 2.92 0 0 0-2.917-2.917Zm0-9.786c1.072 0 1.945.872 1.945 1.944a1.947 1.947 0 0 1-1.945 1.944 1.947 1.947 0 0 1-1.944-1.944c0-1.072.872-1.944 1.944-1.944Zm-9.721 9.754a1.947 1.947 0 0 1-1.945-1.945c0-1.072.872-1.944 1.945-1.944 1.072 0 1.944.872 1.944 1.944a1.947 1.947 0 0 1-1.944 1.945Zm9.721 4.893a1.947 1.947 0 0 1-1.944-1.944c0-1.073.872-1.945 1.944-1.945s1.945.872 1.945 1.945a1.947 1.947 0 0 1-1.945 1.944Z" fill-rule="evenodd" data-name="Path 141838"/></svg>