<svg xmlns="http://www.w3.org/2000/svg" width="53.441" height="12.677" viewBox="335.831 574.083 53.441 12.677"><g data-name="ShopPay - Black" transform="translate(335.831 574.083)" clip-path="url(&quot;#a&quot;)"><path d="M13.724 4.045c-.43-.902-1.244-1.484-2.472-1.484a2.461 2.461 0 0 0-1.932.994l-.045.054V.077A.077.077 0 0 0 9.198 0H7.462a.077.077 0 0 0-.075.077V10.21a.076.076 0 0 0 .075.075h1.859a.077.077 0 0 0 .077-.075V5.89c0-.84.56-1.435 1.456-1.435.98 0 1.227.806 1.227 1.627v4.128a.076.076 0 0 0 .076.075h1.854a.077.077 0 0 0 .077-.075V5.836c0-.15 0-.297-.02-.44a3.864 3.864 0 0 0-.344-1.351Z" fill-rule="evenodd" data-name="Path 141762"/><path d="M4.444 5.546s-.946-.222-1.295-.312c-.348-.09-.957-.28-.957-.74 0-.46.491-.607.99-.607.497 0 1.052.12 1.095.673a.08.08 0 0 0 .08.073l1.832-.007a.079.079 0 0 0 .074-.053.078.078 0 0 0 .004-.031C6.154 2.772 4.602 2.14 3.17 2.14 1.472 2.14.231 3.26.231 4.494c0 .901.255 1.747 2.257 2.334.352.103.829.236 1.246.352.501.14.771.351.771.684 0 .386-.56.655-1.11.655-.796 0-1.361-.295-1.408-.826a.08.08 0 0 0-.08-.07L.08 7.632a.08.08 0 0 0-.08.082c.084 1.67 1.696 2.57 3.2 2.57 2.239 0 3.25-1.26 3.25-2.44.003-.554-.124-1.816-2.006-2.298Z" fill-rule="evenodd" data-name="Path 141763"/><path d="M28.012 2.558c-.93 0-1.71.515-2.213 1.137V2.63a.075.075 0 0 0-.074-.076h-1.738c-.02 0-.04.009-.053.023a.075.075 0 0 0-.023.053v9.937a.076.076 0 0 0 .076.074h1.86a.074.074 0 0 0 .074-.074V9.301h.028c.296.451 1.103.991 2.159.991 1.984 0 3.638-1.646 3.638-3.87.002-2.134-1.644-3.864-3.734-3.864Zm-.172 5.84a1.973 1.973 0 0 1-1.462-3.346 1.973 1.973 0 0 1 3.385 1.37 1.952 1.952 0 0 1-.55 1.388 1.944 1.944 0 0 1-1.373.589Z" fill-rule="evenodd" data-name="Path 141764"/><path d="M18.407 2.122c-1.734 0-2.599.589-3.293 1.06l-.021.015a.171.171 0 0 0-.052.228l.686 1.181a.171.171 0 0 0 .122.084.17.17 0 0 0 .14-.038l.054-.045c.357-.3.93-.7 2.315-.809.771-.061 1.438.14 1.929.6.54.498.863 1.302.863 2.152 0 1.563-.92 2.546-2.4 2.565-1.22-.007-2.038-.642-2.038-1.581 0-.498.226-.823.665-1.148a.17.17 0 0 0 .052-.218l-.616-1.164a.18.18 0 0 0-.248-.07c-.691.411-1.54 1.161-1.493 2.603.056 1.835 1.581 3.235 3.564 3.293H18.872c2.356-.077 4.058-1.827 4.058-4.199 0-2.178-1.587-4.51-4.523-4.51Z" fill-rule="evenodd" data-name="Path 141765"/><path d="M39.076 3.241h-1.182a.106.106 0 0 0-.073.032.103.103 0 0 0-.031.073v2.479c0 .028.01.054.03.073.02.02.047.03.074.03h1.182c.719 0 1.25-.566 1.25-1.343s-.531-1.344-1.25-1.344Z" fill-rule="evenodd" data-name="Path 141766"/><path d="M42.705 7.626c0 .36.304.56.832.56.72 0 1.145-.389 1.145-1.079v-.199l-1.077.056c-.569.028-.9.265-.9.662Z" fill-rule="evenodd" data-name="Path 141767"/><path d="M51.452.022h-15.87a1.981 1.981 0 0 0-1.983 1.984v8.688a1.983 1.983 0 0 0 1.982 1.983h15.87a1.985 1.985 0 0 0 1.99-1.98V2.008a1.991 1.991 0 0 0-.582-1.406 1.987 1.987 0 0 0-1.407-.58ZM39.135 6.904h-1.248a.105.105 0 0 0-.105.105v1.777a.104.104 0 0 1-.105.105h-.879a.107.107 0 0 1-.104-.105v-6.41a.105.105 0 0 1 .105-.105h2.336c1.325 0 2.272.963 2.272 2.317 0 1.353-.94 2.319-2.264 2.319l-.008-.003Zm6.579 1.881a.101.101 0 0 1-.008.04.1.1 0 0 1-.022.035.107.107 0 0 1-.075.031h-.83a.105.105 0 0 1-.105-.106v-.192a.077.077 0 0 0-.05-.08.078.078 0 0 0-.049-.002.077.077 0 0 0-.041.028c-.248.27-.65.466-1.293.466-.946 0-1.572-.493-1.572-1.344a1.25 1.25 0 0 1 .52-1.069c.342-.256.871-.39 1.656-.42l.833-.028v-.243c0-.492-.33-.7-.86-.7-.531 0-.866.187-.944.494a.1.1 0 0 1-.1.073h-.822a.105.105 0 0 1-.08-.035.105.105 0 0 1-.025-.084c.123-.728.725-1.28 2.008-1.28 1.364 0 1.854.633 1.854 1.844l.005 2.572Zm5.17-4.16-1.848 4.928c-.42 1.145-1.154 1.44-1.96 1.44a1.562 1.562 0 0 1-.448-.055.11.11 0 0 1-.058-.039.11.11 0 0 1-.022-.065v-.749a.108.108 0 0 1 .038-.082.105.105 0 0 1 .088-.023c.127.024.256.037.385.037a.996.996 0 0 0 1.003-.71l.055-.172a.105.105 0 0 0 0-.071L46.39 4.627a.102.102 0 0 1-.005-.05.105.105 0 0 1 .056-.078.107.107 0 0 1 .048-.012h.84a.107.107 0 0 1 .1.069L48.6 7.685a.11.11 0 0 0 .1.07.107.107 0 0 0 .101-.07l1.018-3.121a.105.105 0 0 1 .1-.073h.862a.107.107 0 0 1 .085.043.106.106 0 0 1 .017.094v-.002Z" fill-rule="evenodd" data-name="Path 141768"/></g><defs><clipPath id="a"><path d="M0 0h53.57v12.865H0V0z" data-name="Rectangle 19592"/></clipPath></defs></svg>