<svg xmlns="http://www.w3.org/2000/svg" xmlns:xlink="http://www.w3.org/1999/xlink" width="53.571" height="12.865" viewBox="0 0 53.571 12.865">
  <defs>
    <clipPath id="clip-path">
      <rect id="Rectangle_19592" data-name="Rectangle 19592" width="53.571" height="12.865" fill="#fff"/>
    </clipPath>
  </defs>
  <g id="ShopPay_-_Black" data-name="ShopPay - Black" clip-path="url(#clip-path)">
    <path id="Path_141762" data-name="Path 141762" d="M601.614,4.285A2.556,2.556,0,0,0,599.143,2.8a2.46,2.46,0,0,0-1.933.994l-.045.055V.317a.077.077,0,0,0-.077-.077h-1.735a.077.077,0,0,0-.076.077V10.45a.076.076,0,0,0,.076.076h1.859a.077.077,0,0,0,.077-.076V6.13A1.365,1.365,0,0,1,598.744,4.7c.98,0,1.227.806,1.227,1.628V10.45a.076.076,0,0,0,.076.076H601.9a.077.077,0,0,0,.077-.076V6.076a3.247,3.247,0,0,0-.02-.439A3.864,3.864,0,0,0,601.614,4.285Z" transform="translate(-587.89 -0.24)"/>
    <path id="Path_141763" data-name="Path 141763" d="M4.444,176.1s-.946-.223-1.295-.312-.957-.28-.957-.74.491-.607.989-.607,1.052.12,1.1.673a.08.08,0,0,0,.08.073l1.832-.007a.079.079,0,0,0,.031-.006.078.078,0,0,0,.047-.078c-.113-1.769-1.665-2.4-3.1-2.4a2.694,2.694,0,0,0-2.939,2.354c0,.9.255,1.747,2.257,2.334.351.1.829.235,1.246.351.5.14.771.351.771.684,0,.386-.56.655-1.11.655-.8,0-1.362-.3-1.408-.826a.08.08,0,0,0-.08-.07l-1.828.008a.08.08,0,0,0-.08.083,2.973,2.973,0,0,0,3.2,2.57c2.239,0,3.251-1.26,3.251-2.439A2.254,2.254,0,0,0,4.444,176.1Z" transform="translate(0 -170.55)"/>
    <path id="Path_141764" data-name="Path 141764" d="M1931.011,206.188a2.9,2.9,0,0,0-2.213,1.136v-1.064a.076.076,0,0,0-.021-.053.075.075,0,0,0-.053-.023h-1.738a.076.076,0,0,0-.076.076V216.2a.076.076,0,0,0,.023.053.075.075,0,0,0,.053.022h1.86a.074.074,0,0,0,.074-.074v-3.267h.028a2.664,2.664,0,0,0,2.158.991,3.721,3.721,0,0,0,3.639-3.87A3.782,3.782,0,0,0,1931.011,206.188Zm-.172,5.84a1.972,1.972,0,1,1,1.923-1.976,1.946,1.946,0,0,1-1.923,1.976Z" transform="translate(-1902.999 -203.629)"/>
    <path id="Path_141765" data-name="Path 141765" d="M1213.62,171.229a5.177,5.177,0,0,0-3.293,1.061l-.021.014a.173.173,0,0,0-.052.228l.686,1.181a.171.171,0,0,0,.051.056.175.175,0,0,0,.07.028.17.17,0,0,0,.14-.038l.054-.045a3.676,3.676,0,0,1,2.315-.809,2.448,2.448,0,0,1,1.929.6,2.95,2.95,0,0,1,.864,2.153,2.327,2.327,0,0,1-2.4,2.565c-1.219-.007-2.038-.642-2.038-1.582a1.341,1.341,0,0,1,.665-1.148.171.171,0,0,0,.052-.218l-.616-1.164a.181.181,0,0,0-.108-.087.173.173,0,0,0-.14.018,2.779,2.779,0,0,0-1.493,2.6,3.492,3.492,0,0,0,3.564,3.293h.235a4.072,4.072,0,0,0,4.059-4.2A4.429,4.429,0,0,0,1213.62,171.229Z" transform="translate(-1195.213 -169.107)"/>
    <path id="Path_141766" data-name="Path 141766" d="M3046.576,261.455h-1.182a.106.106,0,0,0-.073.031.1.1,0,0,0-.031.074v2.479a.1.1,0,0,0,.031.073.1.1,0,0,0,.073.03h1.182a1.347,1.347,0,0,0,0-2.687Z" transform="translate(-3007.5 -258.214)"/>
    <path id="Path_141767" data-name="Path 141767" d="M3441.38,557.662c0,.36.3.56.833.56a1.015,1.015,0,0,0,1.145-1.079v-.2l-1.078.056C3441.711,557.028,3441.38,557.265,3441.38,557.662Z" transform="translate(-3398.675 -550.036)"/>
    <path id="Path_141768" data-name="Path 141768" d="M2725.462,2.049h-15.871a1.981,1.981,0,0,0-1.982,1.983V12.72a1.983,1.983,0,0,0,1.982,1.983h15.871a1.983,1.983,0,0,0,1.989-1.98V4.035a1.982,1.982,0,0,0-1.989-1.986ZM2713.146,8.93H2711.9a.105.105,0,0,0-.105.1v1.777a.1.1,0,0,1-.1.1h-.879a.106.106,0,0,1-.1-.1V4.4a.1.1,0,0,1,.1-.1h2.337a2.209,2.209,0,0,1,2.272,2.318,2.2,2.2,0,0,1-2.264,2.319Zm6.578,1.881a.1.1,0,0,1-.008.041.1.1,0,0,1-.022.035.107.107,0,0,1-.034.023.1.1,0,0,1-.041.008h-.83a.1.1,0,0,1-.041-.008.1.1,0,0,1-.057-.058.105.105,0,0,1-.008-.041V10.62a.077.077,0,0,0-.011-.048.078.078,0,0,0-.087-.034.077.077,0,0,0-.041.027,1.662,1.662,0,0,1-1.293.466c-.946,0-1.572-.493-1.572-1.344a1.247,1.247,0,0,1,.521-1.069,2.954,2.954,0,0,1,1.656-.42l.833-.028V7.927c0-.491-.33-.7-.861-.7s-.865.188-.943.494a.1.1,0,0,1-.1.073h-.822a.105.105,0,0,1-.044-.009.107.107,0,0,1-.036-.026.1.1,0,0,1-.021-.039.1.1,0,0,1,0-.045c.123-.728.725-1.281,2.009-1.281,1.363,0,1.854.634,1.854,1.845Zm5.17-4.16-1.847,4.928a1.911,1.911,0,0,1-1.96,1.439,1.562,1.562,0,0,1-.449-.055.107.107,0,0,1-.08-.1v-.749a.108.108,0,0,1,.01-.045.107.107,0,0,1,.069-.058.107.107,0,0,1,.046,0,2.084,2.084,0,0,0,.385.036.995.995,0,0,0,1-.71l.055-.172a.105.105,0,0,0,0-.071L2720.4,6.653a.1.1,0,0,1,0-.049.1.1,0,0,1,.018-.046.108.108,0,0,1,.037-.033.107.107,0,0,1,.048-.012h.84a.107.107,0,0,1,.06.019.109.109,0,0,1,.039.05l1.173,3.129a.11.11,0,0,0,.04.05.108.108,0,0,0,.162-.05l1.018-3.121a.1.1,0,0,1,.1-.073h.861a.106.106,0,0,1,.1.088.1.1,0,0,1,0,.049Z" transform="translate(-2674.011 -2.026)"/>
  </g>
</svg>
