<svg xmlns="http://www.w3.org/2000/svg" width="60.012" height="60.014" viewBox="1294 2632 60.012 60.014"><g data-name="Group 116487"><path d="M1315.599 2688.483a.43.43 0 1 0-.785.359l1.33 2.92a.432.432 0 1 0 .785-.36l-1.33-2.919Z" fill-rule="evenodd" data-name="Path 141968"/><path d="M1305.65 2687.79a.431.431 0 0 0-.583.178l-1.504 2.834a.43.43 0 0 0 .38.634.43.43 0 0 0 .381-.23l1.505-2.834a.43.43 0 0 0-.179-.583Z" fill-rule="evenodd" data-name="Path 141969"/><path d="M1336.204 2635.605a.43.43 0 0 0 .55.266.432.432 0 0 0 .266-.55l-1.054-3.031a.432.432 0 1 0-.816.283l1.054 3.032Z" fill-rule="evenodd" data-name="Path 141970"/><path d="M1346.044 2637.223a.429.429 0 0 0 .598-.124l1.762-2.681a.432.432 0 0 0-.72-.475l-1.763 2.682a.43.43 0 0 0 .123.598Z" fill-rule="evenodd" data-name="Path 141971"/><path d="M1322.93 2646.323a.431.431 0 0 0 .391.467l3.171.278-1.065 12.163a.431.431 0 0 0 .86.075l.075-.855a3.208 3.208 0 0 0 3.434-2.913l.71-8.118 2.416.212c.049.356.06.72.03 1.087-.179 2.242.1 4.457.83 6.585l.095.281a.433.433 0 0 0 .548.269.433.433 0 0 0 .268-.548l-.096-.281a15.379 15.379 0 0 1-.785-6.238 6.003 6.003 0 0 0-.089-1.605v-.006a6.03 6.03 0 0 0-3.449-4.356.43.43 0 1 0-.351.787 5.158 5.158 0 0 1 2.803 3.141l-9.328-.815a.429.429 0 0 0-.468.39Zm6.718 1.022-.71 8.117a2.341 2.341 0 0 1-2.499 2.13l.915-10.448 2.294.2Z" fill-rule="evenodd" data-name="Path 141972"/><path d="m1352.723 2641.022-37.868-3.314a.431.431 0 0 0-.075.86l37.867 3.313a.55.55 0 0 1 .5.595l-.526 6.012-16.704-1.461a.431.431 0 0 0-.075.859l3.343.292a7.889 7.889 0 0 0 6.433 5.925l6.983 1.1.087 30.347c0 .276-.113.53-.315.716a.958.958 0 0 1-.74.252l-24.144-2.112a.97.97 0 0 1-.886-.942l-.026-1.007a.432.432 0 0 0-.863.022l.027 1.007a1.832 1.832 0 0 0 1.672 1.778l24.143 2.113a1.84 1.84 0 0 0 1.399-.474c.378-.347.594-.84.594-1.353l-.104-36.588.561-6.41a1.412 1.412 0 0 0-1.283-1.53Z" fill-rule="evenodd" data-name="Path 141973"/><path d="M1326.062 2679.274a.432.432 0 0 0 .42-.442l-.438-16.765a.432.432 0 0 0-.854-.076l-4.299 20.975a.969.969 0 0 1-1.035.772l-24.109-2.109a.957.957 0 0 1-.686-.377.962.962 0 0 1-.185-.76l5.353-29.87 7.066.129a7.887 7.887 0 0 0 7.363-4.719l5.386.471a5.919 5.919 0 0 0-.2 1.06 15.38 15.38 0 0 1-1.856 6.006l-.144.26a.433.433 0 0 0 .377.641c.151 0 .3-.08.378-.223l.144-.26a16.252 16.252 0 0 0 1.961-6.341 5.16 5.16 0 0 1 3.872-4.507.432.432 0 0 0-.21-.837 6.028 6.028 0 0 0-4.016 3.363l-18.976-1.66.526-6.012a.542.542 0 0 1 .195-.374.546.546 0 0 1 .402-.126l8.88.777a.432.432 0 0 0 .076-.859l-8.881-.777a1.402 1.402 0 0 0-1.032.325c-.29.243-.466.583-.499.959l-.562 6.423-6.45 36a1.836 1.836 0 0 0 1.645 2.15l24.11 2.108a1.833 1.833 0 0 0 1.956-1.458l3.542-17.29.34 13.004c.004.238.205.42.44.42Z" fill-rule="evenodd" data-name="Path 141974"/></g></svg>