<svg xmlns="http://www.w3.org/2000/svg" width="26.432" height="26.432" viewBox="407.042 31.961 26.432 26.432"><g data-name="sizeguide icon"><path d="M423.37 42.308a.288.288 0 0 1 .082.2l-.001 2.207a.282.282 0 0 1-.565 0l.002-2.208a.284.284 0 0 1 .481-.2Z" fill-rule="evenodd" data-name="Path 141738"/><path d="M420.455 42.308a.277.277 0 0 1 .083.2l.001 3.679a.283.283 0 0 1-.565.001v-3.68a.284.284 0 0 1 .481-.2Z" fill-rule="evenodd" data-name="Path 141739"/><path d="M426.313 42.308a.284.284 0 0 1 .082.2v3.68a.283.283 0 1 1-.565-.001l.001-3.68a.284.284 0 0 1 .482-.2Z" fill-rule="evenodd" data-name="Path 141740"/><path d="M417.48 42.308a.28.28 0 0 1 .082.2v2.208a.282.282 0 0 1-.564 0v-2.209a.284.284 0 0 1 .482-.2Z" fill-rule="evenodd" data-name="Path 141741"/><path d="M414.536 42.308a.273.273 0 0 1 .083.2l.001 3.679a.282.282 0 1 1-.564 0l-.001-3.68a.284.284 0 0 1 .481-.2Z" fill-rule="evenodd" data-name="Path 141742"/><path d="M430.33 42.035a.284.284 0 0 1 .083.2v5.887a.28.28 0 0 1-.282.282l-19.75.001a.292.292 0 0 1-.281-.282l-.002-5.888a.288.288 0 0 1 .284-.284l19.749.002a.28.28 0 0 1 .2.082Zm-.481 5.805v-5.323l-19.185-.002v5.323l19.185.002Z" fill-rule="evenodd" data-name="Path 141743"/></g></svg>