<svg xmlns="http://www.w3.org/2000/svg" width="55.529" height="52.832" viewBox="611 2636 55.529 52.832"><g data-name="Group 116478"><g data-name="Group 116479"><path d="m666.508 2679.217-6.233-33.537a1.558 1.558 0 0 0-1.392-1.265l-34.252-2.996a1.56 1.56 0 0 0-1.59 1.003l-2.23 5.957a.4.4 0 0 0 .748.28l.72-1.92 37.998 3.325 5.446 29.3a.407.407 0 0 1-.438.482l-7.144-.624a.399.399 0 0 0-.07.795l7.144.624a1.2 1.2 0 0 0 1-.391 1.2 1.2 0 0 0 .293-1.033Z" fill-rule="evenodd" data-name="Path 141891"/><path d="M654.859 2666.791a.4.4 0 0 0-.794.091l1.657 14.496a.066.066 0 0 1-.017.051.068.068 0 0 1-.05.02l-10.72-.939.482-16.014a.398.398 0 1 0-.797-.024l-.526 17.449a.41.41 0 0 1-.445.395l-10.597-.927a.409.409 0 0 1-.37-.467l2.042-14.037a.4.4 0 0 0-.79-.115l-1.835 12.617-10.72-.938a.065.065 0 0 1-.047-.028.06.06 0 0 1-.008-.053l4.59-15.476a.4.4 0 0 0-.765-.227l-3.952 13.324-9.024-.789a.41.41 0 0 1-.348-.55l8.658-23.12a.4.4 0 0 0-.748-.28l-8.657 23.118c-.134.357-.094.746.11 1.067a1.2 1.2 0 0 0 .916.559l8.862.775-.407 1.372a.859.859 0 0 0 .751 1.103l10.675.933-.091.629c-.048.327.043.663.248.923.205.26.512.424.842.454l10.597.927a1.216 1.216 0 0 0 .908-.3c.247-.22.394-.536.404-.866l.02-.636 10.674.934a.859.859 0 0 0 .93-.955l-1.658-14.496Z" fill-rule="evenodd" data-name="Path 141892"/><path d="M637.369 2639.319a.4.4 0 0 0 .514.232.399.399 0 0 0 .233-.514l-1.047-2.779a.399.399 0 1 0-.747.282l1.047 2.779Z" fill-rule="evenodd" data-name="Path 141893"/><path d="M646.509 2640.58a.402.402 0 0 0 .55-.128l1.565-2.523a.4.4 0 0 0-.678-.421l-1.566 2.522a.399.399 0 0 0 .129.55Z" fill-rule="evenodd" data-name="Path 141894"/><path d="M643.045 2685.544a.399.399 0 1 0-.734.313l1.16 2.732a.4.4 0 0 0 .735-.313l-1.161-2.732Z" fill-rule="evenodd" data-name="Path 141895"/><path d="M633.86 2684.663a.399.399 0 0 0-.543.152l-1.46 2.586a.399.399 0 1 0 .696.392l1.46-2.586a.399.399 0 0 0-.153-.544Z" fill-rule="evenodd" data-name="Path 141896"/></g></g></svg>