<svg xmlns="http://www.w3.org/2000/svg" width="59.649" height="59.653" viewBox="748 2631 59.649 59.653"><g data-name="Group 116480"><path d="m761.942 2645.882 1.04-.862a1.714 1.714 0 0 1 1.831-.226c.42.2.832.418 1.234.651a.244.244 0 0 0 .36-.268l-1.387-5.764c-.174-.724-.803-1.266-1.547-1.281a1.618 1.618 0 0 0-1.65 1.542l-.281 6.009a.245.245 0 0 0 .4.2Z" fill-rule="evenodd" data-name="Path 141897"/><path d="m771.51 2657.464.528-4.218a1.714 1.714 0 0 0-.302-1.203l-.6-.845a17.446 17.446 0 0 0-6.69-5.632.856.856 0 0 0-.915.113l-3.208 2.66a30.879 30.879 0 0 0-7.522 9.218 3.415 3.415 0 0 0-.302 2.439l1.111 4.456c.055.22.355.253.456.049l2.816-5.672a22.703 22.703 0 0 1 7.49-8.625.853.853 0 0 1 1.049.063l.658.58a19.996 19.996 0 0 1 4.967 6.686c.1.225.433.175.463-.069Z" fill-rule="evenodd" data-name="Path 141898"/><path d="M784.767 2643.908a17.88 17.88 0 0 1 1.102-.856 1.715 1.715 0 0 1 1.842-.094l1.175.668a.245.245 0 0 0 .36-.267l-1.31-5.821c-.172-.77-.858-1.339-1.646-1.31-.838.031-1.506.69-1.556 1.518l-.368 5.96a.244.244 0 0 0 .4.202Z" fill-rule="evenodd" data-name="Path 141899"/><path d="m780.755 2650.355-.444.936a1.709 1.709 0 0 0-.09 1.237l1.253 4.063c.073.235.408.228.47-.011a19.969 19.969 0 0 1 3.733-7.447l.547-.685a.855.855 0 0 1 1.022-.245 22.707 22.707 0 0 1 8.874 7.194l3.758 5.096c.135.183.425.1.441-.127l.32-4.582a3.42 3.42 0 0 0-.72-2.35 30.875 30.875 0 0 0-9.01-7.772l-3.622-2.064a.854.854 0 0 0-.92.048 17.458 17.458 0 0 0-5.612 6.71Z" fill-rule="evenodd" data-name="Path 141900"/><path d="M773.267 2674.32a33.694 33.694 0 0 1-.448-12.07l1.021-7.123c.55-3.832.575-7.722.074-11.562a.429.429 0 0 0-.85.11c.49 3.763.465 7.575-.073 11.33l-1.021 7.123a34.552 34.552 0 0 0 .46 12.376l1.595 7.247a6.65 6.65 0 0 1-1.933 6.246 6.572 6.572 0 0 1-6.245 1.567 13.594 13.594 0 0 1-9.678-9.894l-5.634-22.985a19.524 19.524 0 0 1 1.037-12.465 19.522 19.522 0 0 1 8.34-9.32 8.555 8.555 0 0 1 6.102-.918 8.587 8.587 0 0 1 6.535 6.634.43.43 0 0 0 .84-.174 9.446 9.446 0 0 0-7.19-7.296 9.416 9.416 0 0 0-6.71 1.009 20.379 20.379 0 0 0-8.705 9.727 20.371 20.371 0 0 0-1.082 13.009l5.634 22.985a14.453 14.453 0 0 0 10.29 10.517 7.422 7.422 0 0 0 7.054-1.77 7.514 7.514 0 0 0 2.183-7.056l-1.596-7.247Z" fill-rule="evenodd" data-name="Path 141901"/><path d="M789.265 2631.55a9.41 9.41 0 0 0-6.784.171 9.445 9.445 0 0 0-5.813 8.434 42.511 42.511 0 0 0 2.106 14.541l2.242 6.838a33.71 33.71 0 0 1 1.655 11.964l-.314 7.414a7.512 7.512 0 0 0 3.376 6.57 7.45 7.45 0 0 0 4.085 1.226 7.486 7.486 0 0 0 3.17-.71 14.45 14.45 0 0 0 8.306-12.143l.35-5.284a.429.429 0 0 0-.855-.056l-.35 5.283a13.595 13.595 0 0 1-7.814 11.424 6.578 6.578 0 0 1-6.423-.458 6.649 6.649 0 0 1-2.988-5.816l.312-7.414a34.54 34.54 0 0 0-1.696-12.268l-2.243-6.838a41.64 41.64 0 0 1-2.063-14.25 8.586 8.586 0 0 1 5.285-7.667 8.557 8.557 0 0 1 6.167-.155 19.54 19.54 0 0 1 9.834 7.733 19.524 19.524 0 0 1 3.187 12.095l-1.026 15.56a.427.427 0 0 0 .399.456.426.426 0 0 0 .456-.4l1.026-15.56a20.38 20.38 0 0 0-3.325-12.622 20.377 20.377 0 0 0-10.262-8.068Z" fill-rule="evenodd" data-name="Path 141902"/><path d="m754.997 2687.506-2.057 2.437a.428.428 0 1 0 .655.553l2.057-2.437a.428.428 0 1 0-.655-.553Z" fill-rule="evenodd" data-name="Path 141903"/><path d="m751.635 2678.38-3.186-.146a.43.43 0 0 0-.04.858l3.186.145h.02a.427.427 0 0 0 .427-.409.428.428 0 0 0-.407-.448Z" fill-rule="evenodd" data-name="Path 141904"/><path d="M799.06 2634.458a.426.426 0 0 0 .594-.123l1.754-2.664a.429.429 0 1 0-.717-.471l-1.753 2.663a.429.429 0 0 0 .122.595Z" fill-rule="evenodd" data-name="Path 141905"/><path d="m807.189 2641.913-3.18.233a.43.43 0 0 0 .03.857l.032-.001 3.18-.233a.43.43 0 0 0-.062-.856Z" fill-rule="evenodd" data-name="Path 141906"/></g></svg>