<svg xmlns="http://www.w3.org/2000/svg" width="69.807" height="46.919" viewBox="195 2639 69.807 46.919"><g data-name="Group 116488"><path d="M264.476 2671.398a.484.484 0 0 0-.039-.125 8.222 8.222 0 0 0-1.727-3.06l-.05-.055a7.893 7.893 0 0 0-4.263-2.467l-10.569-2.245a4.546 4.546 0 0 1-2.114-1.083l-4.111-3.74a5.576 5.576 0 0 0-.632-.497l-7.878-5.313a4.575 4.575 0 0 1-1.516-1.715l-5.593-11.03a1.94 1.94 0 0 0-2.541-.89l-.52.236a11.088 11.088 0 0 0-5.678 5.901.503.503 0 0 0 .929.381 10.085 10.085 0 0 1 5.167-5.37l.519-.236a.94.94 0 0 1 1.231.432l5.593 11.03c.104.202.218.397.344.585l-2.428 1.62a1.325 1.325 0 0 0-.622-.233 1.34 1.34 0 0 0-.419 2.642c.157.034.33.033.485.01a.143.143 0 0 0 .085-.238.51.51 0 0 1 .011-.668l3.525-2.35c.264.27.553.514.867.726l1.065.718-1.73 1.385a1.329 1.329 0 0 0-.502-.158 1.34 1.34 0 0 0-.419 2.642c.157.034.33.033.485.01a.143.143 0 0 0 .085-.238.517.517 0 0 1-.082-.13.518.518 0 0 1 .142-.59l.225-.199 2.666-2.134 2.057 1.388-1.72 1.528a1.37 1.37 0 0 0-.463-.14 1.34 1.34 0 0 0-.419 2.642c.157.035.33.033.485.01a.143.143 0 0 0 .085-.238.517.517 0 0 1-.082-.13.512.512 0 0 1 .103-.55l.03-.02 2.841-2.523 2.332 1.572-4.055 2.152a4.524 4.524 0 0 1-4.433-.092l-9.171-5.367 4.178-3.16a1.949 1.949 0 0 0 .45-2.624l-1.923-2.91a1.949 1.949 0 0 0-2.48-.673l-3.257 1.598-8.014 1.924a3.494 3.494 0 0 1-3.694-1.396l-2.215-3.15a1.523 1.523 0 0 0-1.015-.626c-.408-.06-.828.05-1.153.305l-2.115 1.652c-.306.239-.507.584-.565.969l-1.156 7.797a6.55 6.55 0 0 1-.316 1.256l-2.659 7.41c-.06.166-.111.336-.159.507l-.001.005c-.088.31-.156.625-.204.944l-.72 4.9a3.53 3.53 0 0 0 1.896 3.664l4.134 2.1c.405.207.84.33 1.293.37l47.517 4.157a25.59 25.59 0 0 0 10.318-1.2l2.722-.897a2.522 2.522 0 0 0 1.724-2.175l.135-1.53a8.208 8.208 0 0 0-.302-3.003Zm-64.386-16.36 1.156-7.798a.505.505 0 0 1 .191-.327l2.114-1.654a.505.505 0 0 1 .73.108l2.215 3.149a4.495 4.495 0 0 0 4.748 1.795l3.664-.88-5.25 2.577a9.383 9.383 0 0 1-6.952.537.502.502 0 0 0-.299.958c2.556.795 5.288.585 7.692-.595l9.31-4.568 3.314-1.626a.945.945 0 0 1 1.201.327l1.924 2.91a.944.944 0 0 1-.218 1.271l-4.774 3.61-.003.001-6.994 5.286a.501.501 0 1 0 .605.8l6.726-5.084 9.53 5.577c.872.51 1.838.766 2.805.766.892 0 1.785-.218 2.606-.654l4.517-2.397c.096.075.19.152.28.233l.638.579-2.876 2.057a1.01 1.01 0 0 0 .113 1.714l3.055 1.626a1.01 1.01 0 0 0 1.297-.306l1.575-2.21.307.28c.727.66 1.62 1.119 2.582 1.323l10.568 2.244.078.019-1.2.838a5.579 5.579 0 0 1-3.672.982l-19.869-1.738a19.794 19.794 0 0 1-4.191-.832l-7.867-2.471a20.855 20.855 0 0 0-4.405-.874l-1.015-.09a.501.501 0 0 0-.087 1l1.015.089c1.42.124 2.83.404 4.191.831l7.867 2.471c1.429.449 2.911.744 4.405.875l19.868 1.738a6.579 6.579 0 0 0 4.333-1.16l1.827-1.275a6.868 6.868 0 0 1 2.114 1.41l-2.109 1.441a5.05 5.05 0 0 1-3.294.863l-8.732-.764a10.104 10.104 0 0 0-7.84 2.74l-12.7-1.043a20.7 20.7 0 0 1-5.521-1.221l-13.486-12.233a6.065 6.065 0 0 0-6.424-1.1l-2.35.988.6-1.672c.172-.462.294-.95.367-1.441Zm2.356 20.008a2.528 2.528 0 0 1-.926-.266l-4.134-2.1a2.528 2.528 0 0 1-1.357-2.624l.081-.558 8.472 1.728-.087 1c-.046.526.32 1 .841 1.085l8.552 1.415c.58.096 1.12-.323 1.172-.909l.039-.446 1.984.405c.954.195 1.932.336 2.904.421l14.232 1.246.045.001a.502.502 0 0 0 .043-1l-14.233-1.246a24.693 24.693 0 0 1-2.79-.406l-21.029-4.289.493-3.348c.02-.138.048-.275.076-.413l4.817.422a29.83 29.83 0 0 1 8.253 1.93l10.765 4.206a21.65 21.65 0 0 0 6.164 1.42l15.806 1.298c-.474.294-.919.64-1.322 1.035l-3.807-.33a.501.501 0 0 0-.087 1l3.042.266-1.97 2.21-36.039-3.153Zm61.194.798a1.52 1.52 0 0 1-1.038 1.31l-2.722.897a24.641 24.641 0 0 1-9.916 1.153l-10.232-.895.781-.875 6.127.533a34.891 34.891 0 0 0 17.06-2.812l-.06.689Zm.155-1.833a33.96 33.96 0 0 1-17.068 2.954l-5.38-.469.365-.41a6.606 6.606 0 0 1 5.481-2.176l8.25.723a11.7 11.7 0 0 0 7.148-1.706l1.066-.662c.116.57.164 1.158.138 1.746Z" fill-rule="evenodd" data-name="Path 141975"/><path d="M234.446 2647.672a.502.502 0 0 0 .583-.403l.668-3.673a.502.502 0 0 0-.987-.179l-.668 3.673a.501.501 0 0 0 .404.582Z" fill-rule="evenodd" data-name="Path 141976"/><path d="M243.528 2654.63a.488.488 0 0 0 .23-.056l3.318-1.71a.5.5 0 1 0-.46-.89l-3.317 1.708a.5.5 0 0 0 .229.947Z" fill-rule="evenodd" data-name="Path 141977"/><path d="M230.317 2681.765a.502.502 0 0 0-.931.373l1.386 3.466a.501.501 0 1 0 .932-.373l-1.387-3.466Z" fill-rule="evenodd" data-name="Path 141978"/><path d="M218.797 2680.414a.501.501 0 0 0-.688.176l-1.902 3.21a.501.501 0 1 0 .863.513l1.902-3.211a.502.502 0 0 0-.175-.688Z" fill-rule="evenodd" data-name="Path 141979"/></g></svg>