<svg xmlns="http://www.w3.org/2000/svg" width="24" height="16.5" viewBox="0 0 24 16.5">
  <path id="Icon" d="M0-16.5V-15H14.25V-3.75H9.633A2.977,2.977,0,0,0,8.578-5.367,2.858,2.858,0,0,0,6.75-6a2.858,2.858,0,0,0-1.828.633A2.977,2.977,0,0,0,3.867-3.75H3V-7.5H1.5v5.25H3.867A2.977,2.977,0,0,0,4.922-.633,2.858,2.858,0,0,0,6.75,0,2.858,2.858,0,0,0,8.578-.633,2.977,2.977,0,0,0,9.633-2.25h6.234A2.977,2.977,0,0,0,16.922-.633,2.858,2.858,0,0,0,18.75,0a2.858,2.858,0,0,0,1.828-.633A2.977,2.977,0,0,0,21.633-2.25H24V-8.367l-.047-.117L22.289-13.5H15.75v-3Zm.75,3V-12H7.5v-1.5Zm15,1.5h5.461L22.5-8.156V-3.75h-.867a2.977,2.977,0,0,0-1.055-1.617A2.858,2.858,0,0,0,18.75-6a2.858,2.858,0,0,0-1.828.633A2.977,2.977,0,0,0,15.867-3.75H15.75ZM1.5-10.5V-9H6v-1.5Zm5.25,6a1.449,1.449,0,0,1,1.066.434A1.449,1.449,0,0,1,8.25-3a1.449,1.449,0,0,1-.434,1.066A1.449,1.449,0,0,1,6.75-1.5a1.449,1.449,0,0,1-1.066-.434A1.449,1.449,0,0,1,5.25-3a1.449,1.449,0,0,1,.434-1.066A1.449,1.449,0,0,1,6.75-4.5Zm12,0a1.449,1.449,0,0,1,1.066.434A1.449,1.449,0,0,1,20.25-3a1.449,1.449,0,0,1-.434,1.066A1.449,1.449,0,0,1,18.75-1.5a1.449,1.449,0,0,1-1.066-.434A1.449,1.449,0,0,1,17.25-3a1.449,1.449,0,0,1,.434-1.066A1.449,1.449,0,0,1,18.75-4.5Z" transform="translate(0 16.5)" fill="#fff"/>
</svg>
