<svg xmlns="http://www.w3.org/2000/svg" width="48.231" height="52.618" viewBox="67 2636 48.231 52.618"><g data-name="Group 116472"><path d="M95.434 2651.826a5.223 5.223 0 0 1-3.915 1.273 5.225 5.225 0 0 1-3.634-1.933.379.379 0 0 0-.588.475 5.97 5.97 0 0 0 4.156 2.211 5.967 5.967 0 0 0 4.476-1.454.378.378 0 0 0-.495-.572Z" fill-rule="evenodd" data-name="Path 141847"/><path d="M103.44 2657.721a.377.377 0 0 0-.41.344l-2.556 29.219a.634.634 0 0 1-.685.575l-22.45-1.964a.634.634 0 0 1-.574-.685l.223-2.561a.379.379 0 0 0-.753-.066l-.223 2.562c-.033.37.08.729.32 1.013.238.284.573.458.943.49l22.448 1.965a1.38 1.38 0 0 0 1.013-.32c.284-.239.458-.574.49-.943l2.557-29.22a.379.379 0 0 0-.343-.409Z" fill-rule="evenodd" data-name="Path 141848"/><path d="M107.452 2653.455a14.605 14.605 0 0 0-5.305-3.91l-2.681-1.155a.363.363 0 0 0-.117-.029l-.036-.003a.379.379 0 0 0-.295.107l-4.886-4.56a2.917 2.917 0 0 0-1.366-.715l.07-.794c.001-.029.028-.045.054-.046a3.188 3.188 0 0 0 3.022-3.098 3.176 3.176 0 0 0-6.339-.352.378.378 0 0 0 .753.066 2.393 2.393 0 0 1 .914-1.69 2.405 2.405 0 0 1 1.862-.49c1.182.178 2.084 1.253 2.054 2.448a2.43 2.43 0 0 1-2.301 2.36.815.815 0 0 0-.774.737l-.07.794a2.92 2.92 0 0 0-1.469.467l-5.605 3.642-.015-.022a.38.38 0 0 0-.257-.134l-.036-.004a.373.373 0 0 0-.12.01l-2.841.67a14.602 14.602 0 0 0-5.904 2.93l-8.26 6.811a1.39 1.39 0 0 0-.242 1.884l4.597 6.36a1.39 1.39 0 0 0 2.023.246l4.107-3.48-1.505 17.2a.378.378 0 1 0 .753.065l2.08-23.78a.379.379 0 0 0-.752-.067l-.482 5.51-4.69 3.974a.62.62 0 0 1-.485.145.626.626 0 0 1-.437-.257l-4.596-6.36a.633.633 0 0 1 .11-.857l8.26-6.812a13.859 13.859 0 0 1 5.596-2.777l2.385-.563c-.09 4.034 2.978 7.511 7.054 7.869 4.077.355 7.703-2.535 8.314-6.524l2.252.97a13.844 13.844 0 0 1 5.028 3.706l6.952 8.141a.635.635 0 0 1-.04.864l-5.63 5.465a.63.63 0 0 1-.927-.049l-2.093-2.518a.379.379 0 0 0-.583.483l2.093 2.519c.247.297.609.478.994.499l.074.002c.36 0 .709-.14.968-.392l5.632-5.465a1.392 1.392 0 0 0 .089-1.898l-6.95-8.143Zm-16.102 1.587c-3.165-.277-5.654-2.639-6.236-5.611l6.296-2.43c.42-.162.89-.121 1.276.111l5.778 3.486c-1.089 2.827-3.951 4.72-7.114 4.444Z" fill-rule="evenodd" data-name="Path 141849"/><path d="m70.127 2648.663 2.444 1.393a.379.379 0 1 0 .373-.657l-2.444-1.393a.377.377 0 1 0-.373.657Z" fill-rule="evenodd" data-name="Path 141850"/><path d="M79.574 2645.127a.378.378 0 1 0 .749-.103l-.384-2.788a.378.378 0 1 0-.749.104l.384 2.787Z" fill-rule="evenodd" data-name="Path 141851"/><path d="M105.908 2648.974a.378.378 0 0 0 .468-.26l.776-2.704a.378.378 0 1 0-.727-.208l-.776 2.704a.378.378 0 0 0 .26.468Z" fill-rule="evenodd" data-name="Path 141852"/><path d="M115.204 2653.325a.378.378 0 0 0-.49-.213l-2.617 1.033a.378.378 0 1 0 .278.703l2.617-1.033a.378.378 0 0 0 .212-.49Z" fill-rule="evenodd" data-name="Path 141853"/></g></svg>