<svg xmlns="http://www.w3.org/2000/svg" width="21.776" height="21.776" viewBox="0 0 21.776 21.776">
  <path id="user" d="M18.587,3.189a10.888,10.888,0,0,0-15.4,15.4,10.888,10.888,0,0,0,15.4-15.4ZM4.725,18.259a6.229,6.229,0,0,1,6.163-5.482,6.206,6.206,0,0,1,6.163,5.482,9.592,9.592,0,0,1-12.325,0Zm6.163-6.8A3.307,3.307,0,1,1,14.2,8.156,3.311,3.311,0,0,1,10.888,11.463Zm7.261,5.717a7.5,7.5,0,0,0-4.7-5.229,4.583,4.583,0,1,0-5.13,0,7.494,7.494,0,0,0-4.7,5.227,9.612,9.612,0,1,1,14.523,0Zm0,0" fill="#0c162c"/>
</svg>
